<svg width="83" height="83" viewBox="0 0 83 83" fill="none" xmlns="http://www.w3.org/2000/svg">
<path d="M41.5 63.5159C38.2343 63.5159 35.1154 62.7821 32.3267 61.4978C39.8855 58.0119 45.1693 50.3798 45.1693 41.5C45.1693 32.6203 39.8855 24.9881 32.3267 21.5022C35.1154 20.218 38.2343 19.4841 41.5 19.4841C47.339 19.4841 52.9388 21.8036 57.0676 25.9324C61.1964 30.0612 63.5159 35.661 63.5159 41.5C63.5159 47.339 61.1964 52.9388 57.0676 57.0676C52.9388 61.1964 47.339 63.5159 41.5 63.5159ZM70.8546 29.3546V12.1454H53.6455L41.5 0L29.3546 12.1454H12.1454V29.3546L0 41.5L12.1454 53.6455V70.8546H29.3546L41.5 83L53.6455 70.8546H70.8546V53.6455L83 41.5L70.8546 29.3546Z" fill="#00EAFF"/>
</svg>
