<svg width="80" height="80" viewBox="0 0 80 80" fill="none" xmlns="http://www.w3.org/2000/svg">
<path d="M40 61.2202C34.3721 61.2202 28.9746 58.9845 24.9951 55.0049C21.0155 51.0254 18.7798 45.6279 18.7798 40C18.7798 34.3721 21.0155 28.9746 24.9951 24.9951C28.9746 21.0155 34.3721 18.7798 40 18.7798C45.6279 18.7798 51.0254 21.0155 55.0049 24.9951C58.9845 28.9746 61.2202 34.3721 61.2202 40C61.2202 45.6279 58.9845 51.0254 55.0049 55.0049C51.0254 58.9845 45.6279 61.2202 40 61.2202ZM68.2935 51.7065L80 40L68.2935 28.2935V11.7065H51.7065L40 0L28.2935 11.7065H11.7065V28.2935L0 40L11.7065 51.7065V68.2935H28.2935L40 80L51.7065 68.2935H68.2935V51.7065Z" fill="#00EAFF"/>
</svg>
