<svg width="111" height="111" viewBox="0 0 111 111" fill="currentColor" xmlns="http://www.w3.org/2000/svg">
<path d="M36.5132 23.3684C36.5132 18.3328 38.5136 13.5034 42.0743 9.9427C45.635 6.38197 50.4644 4.38158 55.5 4.38158C60.5356 4.38158 65.365 6.38197 68.9257 9.9427C72.4865 13.5034 74.4868 18.3328 74.4868 23.3684C74.4868 25.8221 76.4147 27.75 78.8684 27.75C81.3221 27.75 83.25 25.8221 83.25 23.3684V18.9868H92.0132V23.3684C92.0132 26.8546 90.6283 30.198 88.1632 32.6631C85.698 35.1283 82.3546 36.5132 78.8684 36.5132C75.3822 36.5132 72.0388 35.1283 69.5737 32.6631C67.1086 30.198 65.7237 26.8546 65.7237 23.3684C65.7237 20.6569 64.6466 18.0565 62.7292 16.1392C60.8119 14.2219 58.2115 13.1447 55.5 13.1447C52.7885 13.1447 50.1881 14.2219 48.2708 16.1392C46.3535 18.0565 45.2763 20.6569 45.2763 23.3684H52.579V30.9047C69.4626 35.9289 81.7895 51.5858 81.7895 70.1053C81.7895 80.9512 77.4809 91.353 69.8117 99.0222C62.1424 106.691 51.7407 111 40.8947 111C30.0488 111 19.647 106.691 11.9778 99.0222C4.30854 91.353 0 80.9512 0 70.1053C0 51.5858 12.3268 35.9289 29.2105 30.9047V23.3684H36.5132ZM99.3158 23.3684H111V29.2105H99.3158V23.3684ZM81.7895 11.6842V0H87.6316V11.6842H81.7895ZM92.9479 13.9042L101.244 5.60842L105.392 9.75632L97.0958 18.0521L92.9479 13.9042Z" fill="#0d0e4a"/>
</svg>
